<?xml version="1.0" encoding="utf-8"?>
<!-- Generator: Adobe Illustrator 21.0.2, SVG Export Plug-In . SVG Version: 6.00 Build 0)  -->
<svg version="1.1" id="Capa_1" xmlns="http://www.w3.org/2000/svg" xmlns:xlink="http://www.w3.org/1999/xlink" x="0px" y="0px"
	 viewBox="0 0 60 60" style="enable-background:new 0 0 60 60;" xml:space="preserve">
<style type="text/css">
	.st0{clip-path:url(#SVGID_2_);}
	.st1{clip-path:url(#SVGID_4_);}
	.st2{fill:#EA1E0F;}
</style>
<g>
	<g>
		<defs>
			<rect id="SVGID_1_" x="7.8" y="11" width="25.8" height="32.4"/>
		</defs>
		<clipPath id="SVGID_2_">
			<use xlink:href="#SVGID_1_"  style="overflow:visible;"/>
		</clipPath>
		<g class="st0">
			<defs>
				<path id="SVGID_3_" d="M30.6,23.4c-1.7,0-3-1.3-3-2.8c0-1.6,1.4-2.8,3-2.8c1.7,0,3,1.3,3,2.8C33.6,22.1,32.2,23.4,30.6,23.4z
					 M25.4,35.7l0.5,5.1L33,36v7.4H7.8V11H33v1.6l-11.5,0.4v22.1L25.4,35.7z"/>
			</defs>
			<clipPath id="SVGID_4_">
				<use xlink:href="#SVGID_3_"  style="overflow:visible;"/>
			</clipPath>
			<g class="st1">
				<defs>
					<rect id="SVGID_5_" x="7.8" y="11" width="25.8" height="32.4"/>
				</defs>
				<clipPath id="SVGID_6_">
					<use xlink:href="#SVGID_5_"  style="overflow:visible;"/>
				</clipPath>
				<g style="clip-path:url(#SVGID_6_);">
					
						<image style="overflow:visible;" width="47" height="63" xlink:href="80C77522.jpg"  transform="matrix(0.5488 0 0 0.5149 7.7916 11)">
					</image>
				</g>
			</g>
		</g>
	</g>
</g>
<g>
	<path class="st2" d="M20,49c-2.2,0-4,1.8-4,4s1.8,4,4,4s4-1.8,4-4S22.2,49,20,49z M20,55c-1.1,0-2-0.9-2-2s0.9-2,2-2s2,0.9,2,2
		S21.1,55,20,55z"/>
	<path class="st2" d="M17,5h4c0.6,0,1-0.4,1-1s-0.4-1-1-1h-4c-0.6,0-1,0.4-1,1S16.4,5,17,5z"/>
	<path class="st2" d="M24,5h1c0.6,0,1-0.4,1-1s-0.4-1-1-1h-1c-0.6,0-1,0.4-1,1S23.4,5,24,5z"/>
	<path class="st2" d="M53,11H38V4.4C38,2,36,0,33.6,0H8.4C6,0,4,2,4,4.4v51.2C4,58,6,60,8.4,60h25.2c2.4,0,4.4-2,4.4-4.4V37h15V11z
		 M8.4,2h25.2C34.9,2,36,3.1,36,4.4V6H6V4.4C6,3.1,7.1,2,8.4,2z M33.6,58H8.4C7.1,58,6,56.9,6,55.6V48h30v7.6
		C36,56.9,34.9,58,33.6,58z M36,46H6V8h30v3H21v26h4v7l9.3-7H36V46z M51,35H38h-4.3L27,40v-5h-4V13h15h13V35z"/>
</g>
<path class="st2" d="M30.9,16.2c-2.1,0-3.9,1.7-3.9,3.9c0,1.9,1.3,3.4,3.1,3.8v1.6c0,0.4,0.3,0.8,0.8,0.8s0.8-0.3,0.8-0.8v-1.6
	c1.8-0.4,3.1-1.9,3.1-3.8C34.7,17.9,33,16.2,30.9,16.2z M30.9,22.3c-1.3,0-2.3-1-2.3-2.3s1-2.3,2.3-2.3c1.3,0,2.3,1,2.3,2.3
	S32.1,22.3,30.9,22.3z"/>
<path class="st2" d="M36.4,28.6c0.1,0.1,0.1,0.2,0.2,0.3c0.3,0.3,0.7,0.4,1.1,0.2c1.2-0.5,2.4-1.2,3.6-2.1c0.5-0.3,0.6-0.9,0.3-1.4
	c-0.3-0.4-0.9-0.6-1.4-0.3c-1.1,0.8-2.2,1.4-3.3,1.9C36.4,27.5,36.1,28.1,36.4,28.6z"/>
<path class="st2" d="M28.8,29.6c0.1,0.1,0.2,0.2,0.4,0.2c1.4,0.4,2.8,0.6,4.4,0.4c0.5-0.1,0.9-0.6,0.9-1.1c-0.1-0.5-0.6-0.9-1.1-0.9
	c-1.2,0.1-2.4,0-3.5-0.3c-0.5-0.2-1.1,0.1-1.3,0.6C28.4,28.9,28.5,29.3,28.8,29.6z"/>
<path class="st2" d="M43.1,24.4C43.2,24.4,43.2,24.5,43.1,24.4c0.4,0.4,1,0.4,1.4,0.1c0.7-0.6,1.5-1.3,2.2-2.1
	c0.2-0.2,0.5-0.5,0.7-0.8c0.4-0.4,0.3-1,0-1.4c-0.4-0.4-1-0.4-1.4,0c-0.2,0.2-0.5,0.5-0.7,0.7c-0.7,0.7-1.4,1.4-2.1,2
	C42.8,23.4,42.8,24,43.1,24.4z"/>
</svg>
