<svg xmlns="http://www.w3.org/2000/svg" width="125" height="94" viewBox="0 0 125 94">
  <metadata><?xpacket begin="﻿" id="W5M0MpCehiHzreSzNTczkc9d"?>
<x:xmpmeta xmlns:x="adobe:ns:meta/" x:xmptk="Adobe XMP Core 5.6-c138 79.159824, 2016/09/14-01:09:01        ">
   <rdf:RDF xmlns:rdf="http://www.w3.org/1999/02/22-rdf-syntax-ns#">
      <rdf:Description rdf:about=""/>
   </rdf:RDF>
</x:xmpmeta>
                                                                                                    
                                                                                                    
                                                                                                    
                                                                                                    
                                                                                                    
                                                                                                    
                                                                                                    
                                                                                                    
                                                                                                    
                                                                                                    
                                                                                                    
                                                                                                    
                                                                                                    
                                                                                                    
                                                                                                    
                                                                                                    
                                                                                                    
                                                                                                    
                                                                                                    
                                                                                                    
                           
<?xpacket end="w"?></metadata>
<defs>
    <style>
      .cls-1 {
        fill: #fbd2cf;
      }

      .cls-1, .cls-2 {
        fill-rule: evenodd;
      }

      .cls-2 {
        fill: #ea1e0f;
      }
    </style>
  </defs>
  <path id="Прямоугольник_скругл._углы_10" data-name="Прямоугольник, скругл. углы 10" class="cls-1" d="M57,2H83A10,10,0,0,1,93,12V83A10,10,0,0,1,83,93H57A10,10,0,0,1,47,83V12A10,10,0,0,1,57,2ZM48,81H94a5,5,0,0,1,5,5v1a5,5,0,0,1-5,5H48a5,5,0,0,1-5-5V86A5,5,0,0,1,48,81ZM59,12H82a3,3,0,0,1,3,3V38a3,3,0,0,1-3,3H59a3,3,0,0,1-3-3V15A3,3,0,0,1,59,12Zm35,0h29V41H94V12Zm12,6h4a5,5,0,0,1,0,10h-4A5,5,0,0,1,106,18Z"/>
  <path id="Прямоугольник_1" data-name="Прямоугольник 1" class="cls-2" d="M120.777,42.8H109.8V92.321h-2.533V42.8H96.284a4.223,4.223,0,0,1-1.689-.354V78.893h1.689a4.21,4.21,0,0,1,4.223,4.2V89.8A4.21,4.21,0,0,1,96.284,94H44.764a4.21,4.21,0,0,1-4.223-4.2V83.089a4.21,4.21,0,0,1,4.223-4.2h1.689V39.446c-4.084,2.462-9.1,3.815-9.291,10.911,2.387,9.141,1.482,10.654,1.689,15.107C40,79.021,28.716,78.893,28.716,78.893S14.358,80.172,14.358,64.625c1.367-6.246,3.08-15.013,8.446-21.821a30.7,30.7,0,0,0,4.223-15.947c0-6.347-1.231-8.393-2.534-8.393-1.233,0-1.218,1.517-4.223,4.2-4.027.137-15.077-8.6-14.358-10.911C5.938,8.777,7.523,8.04,9.291,5.875,8.278,4.771,5.068,4.2,5.068,4.2,1.652,4.24,0,4.54,0,2.518,0,0.1,1.448.3,4.223,0A42.371,42.371,0,0,1,20.27,8.393C24.8,10.757,31.231,18.1,31.25,26.857A41.148,41.148,0,0,1,25.611,44.97,44.518,44.518,0,0,0,18.581,66.3c0.13,5.656,3.817,9.232,9.291,9.232,3.976,0,7.552-1.219,7.6-10.911,0.133-8.13-.449-7.219-1.689-14.268,0.224-4.4,2.352-7.373,5.068-10.071,3.77-4.46,7.6-5.036,7.6-5.036V5.875A5.052,5.052,0,0,1,51.52.839H89.527a5.052,5.052,0,0,1,5.068,5.036v4.551a4.223,4.223,0,0,1,1.689-.354h24.493a4.21,4.21,0,0,1,4.223,4.2V38.607A4.21,4.21,0,0,1,120.777,42.8ZM12.669,7.554l-3.378,4.2L18.581,19.3l3.378-4.2Zm78.547-.839A2.526,2.526,0,0,0,88.682,4.2H52.365a2.526,2.526,0,0,0-2.534,2.518V76.375a2.526,2.526,0,0,0,2.534,2.518H88.682a2.526,2.526,0,0,0,2.534-2.518V6.714ZM92.905,82.25H48.142a4.2,4.2,0,1,0,0,8.393H92.905A4.2,4.2,0,1,0,92.905,82.25Zm29.057-66.618a2.525,2.525,0,0,0-2.533-2.518h-21.8A2.526,2.526,0,0,0,95.1,15.632V37.584A2.526,2.526,0,0,0,97.632,40.1h21.8a2.525,2.525,0,0,0,2.533-2.518V15.632ZM111.486,29.375h-7.6v7.554h-2.534V16.786h10.135a5.052,5.052,0,0,1,5.068,5.036v2.518A5.052,5.052,0,0,1,111.486,29.375ZM110.22,19.3h-6.335v7.554h6.335A3.777,3.777,0,1,0,110.22,19.3ZM82.77,42.8H58.277a4.21,4.21,0,0,1-4.223-4.2V14.268a4.21,4.21,0,0,1,4.223-4.2H82.77a4.21,4.21,0,0,1,4.223,4.2V38.607A4.21,4.21,0,0,1,82.77,42.8Zm0.341-26.333a2.526,2.526,0,0,0-2.534-2.518H60.47a2.526,2.526,0,0,0-2.534,2.518V36.745a2.526,2.526,0,0,0,2.534,2.518H80.577a2.526,2.526,0,0,0,2.534-2.518V16.471ZM61.233,48.679H79.814a2.1,2.1,0,1,1,0,4.2H61.233A2.1,2.1,0,1,1,61.233,48.679Z"/>
</svg>
