<?xml version="1.0" encoding="utf-8"?>
<!-- Generator: Adobe Illustrator 21.0.2, SVG Export Plug-In . SVG Version: 6.00 Build 0)  -->
<svg version="1.1" id="Capa_1" xmlns="http://www.w3.org/2000/svg" xmlns:xlink="http://www.w3.org/1999/xlink" x="0px" y="0px"
	 viewBox="0 0 512 512" style="enable-background:new 0 0 512 512;" xml:space="preserve">
<style type="text/css">
	.st0{clip-path:url(#SVGID_2_);}
	.st1{clip-path:url(#SVGID_4_);}
	.st2{fill:#EA1E0F;}
</style>
<g>
	<g>
		<defs>
			<rect id="SVGID_1_" x="44" y="6.3" width="458" height="494.3"/>
		</defs>
		<clipPath id="SVGID_2_">
			<use xlink:href="#SVGID_1_"  style="overflow:visible;"/>
		</clipPath>
		<g class="st0">
			<defs>
				<path id="SVGID_3_" d="M69,500.6L69,500.6c-13.8,0-25-11.2-25-24.9v-127c0-13.8,11.2-24.9,24.9-24.9h0
					c13.8,0,24.9,11.2,24.9,24.9v127C93.9,489.4,82.7,500.6,69,500.6z M470,133.4c0-10-8.1-18.1-18.1-18.1H220.7
					c-10,0-18.1,8.1-18.1,18.1v117.8c0,10,8.1,18.1,18.1,18.1h231.1c10,0,18.1-8.1,18.1-18.1V133.4z M470,60.9
					c0-10-8.1-18.1-18.1-18.1H220.7c-10,0-18.1,8.1-18.1,18.1v4.5c0,10,8.1,18.1,18.1,18.1h231.1c10,0,18.1-8.1,18.1-18.1V60.9z
					 M202.6,332.8c0,10,8.1,18.1,18.1,18.1h13.6c10,0,18.1-8.1,18.1-18.1v-4.5c0-10-8.1-18.1-18.1-18.1h-13.6
					c-10,0-18.1,8.1-18.1,18.1V332.8z M284.2,369.1c0,10,8.1,18.1,18.1,18.1h63.3c10,0,18.1-8.1,18.1-18.1v-4.5
					c0-10-8.1-18.1-18.1-18.1h-63.3c-10,0-18.1,8.1-18.1,18.1V369.1z M415.6,332.8c0,10,8.1,18.1,18.1,18.1h13.6
					c10,0,18.1-8.1,18.1-18.1v-4.5c0-10-8.1-18.1-18.1-18.1h-13.6c-10,0-18.1,8.1-18.1,18.1V332.8z M456.4,441.6H216.2
					c-25,0-45.3-20.3-45.3-45.3V51.8c0-25,20.3-45.3,45.3-45.3h240.2c25,0,45.3,20.3,45.3,45.3v344.5
					C501.7,421.3,481.4,441.6,456.4,441.6z"/>
			</defs>
			<clipPath id="SVGID_4_">
				<use xlink:href="#SVGID_3_"  style="overflow:visible;"/>
			</clipPath>
			<g class="st1">
				<defs>
					<rect id="SVGID_5_" x="44" y="6.3" width="458" height="494.3"/>
				</defs>
				<clipPath id="SVGID_6_">
					<use xlink:href="#SVGID_5_"  style="overflow:visible;"/>
				</clipPath>
				<g style="clip-path:url(#SVGID_6_);">
					
						<image style="overflow:visible;" width="101" height="109" xlink:href="373B4993.jpg"  transform="matrix(4.5347 0 0 4.5347 44 6.3037)">
					</image>
				</g>
			</g>
		</g>
	</g>
</g>
<g>
	<g>
		<g>
			<path class="st2" d="M473.2,0H200.9c-22.5,1.1-39.8,20.2-38.8,42.7v349.9c0,0.1,0.1,0.2,0.1,0.4c0,1,0.2,1.9,0.6,2.8l0.1,0.2l0,0
				l20.2,46.4c2.5,5.9,8.2,9.8,14.6,9.9h7.1v34.1c0,2.9,0.6,5.8,1.6,8.5h-104V341.4c0-14.1-11.5-25.6-25.6-25.6V170.1
				c35.8-4.5,61.9-36,59.6-72s-32.1-64-68.1-64s-65.9,28-68.1,64s23.8,67.5,59.6,72v145.7c-14.1,0-25.6,11.5-25.6,25.6V495H8.5
				c-4.7,0-8.5,3.8-8.5,8.5s3.8,8.5,8.5,8.5h494.9c4.7,0,8.5-3.8,8.5-8.5s-3.8-8.5-8.5-8.5h-35.7c1-2.7,1.5-5.6,1.6-8.5v-34.1h7.1
				c6.4-0.1,12.2-4,14.6-9.9l20.2-46.4l0,0c0-0.1,0-0.1,0.1-0.2c0.4-0.9,0.5-1.9,0.6-2.8c0-0.1,0.1-0.2,0.1-0.3V42.7
				C513,20.2,495.7,1.2,473.2,0z M17.1,102.4c0-28.3,22.9-51.2,51.2-51.2s51.2,22.9,51.2,51.2s-22.9,51.2-51.2,51.2
				C40,153.6,17.1,130.7,17.1,102.4z M85.3,495H51.2V341.4c0-4.7,3.8-8.5,8.5-8.5h17.1c4.7,0,8.5,3.8,8.5,8.5V495z M256,486.4
				c0,4.7-3.8,8.5-8.5,8.5h-17.1c-4.7,0-8.5-3.8-8.5-8.5v-34.1H256V486.4z M271.5,495c1-2.7,1.5-5.6,1.6-8.5v-34.1h128v34.1
				c0,2.9,0.6,5.8,1.6,8.5H271.5z M452.3,486.4c0,4.7-3.8,8.5-8.5,8.5h-17.1c-4.7,0-8.5-3.8-8.5-8.5v-34.1h34.1L452.3,486.4
				L452.3,486.4z M475.6,435.2h-277l-14.9-34.1h306.8L475.6,435.2z M298.7,384V367c0-4.7,3.8-8.5,8.5-8.5h59.7
				c4.7,0,8.5,3.8,8.5,8.5V384H298.7z M494.9,42.7V384H392.5V367c0-14.1-11.5-25.6-25.6-25.6h-59.7c-14.1,0-25.6,11.5-25.6,25.6V384
				H179.2V42.7c-1-13,8.7-24.4,21.7-25.6h272.3C486.2,18.3,495.9,29.7,494.9,42.7z"/>
			<path class="st2" d="M452.3,34.2H221.9c-14.1,0-25.6,11.5-25.6,25.6v8.5c0,14.1,11.5,25.6,25.6,25.6h230.4
				c14.1,0,25.6-11.5,25.6-25.6v-8.5C477.9,45.6,466.4,34.2,452.3,34.2z M460.8,68.3c0,4.7-3.8,8.5-8.5,8.5H221.9
				c-4.7,0-8.5-3.8-8.5-8.5v-8.5c0-4.7,3.8-8.5,8.5-8.5h230.4c4.7,0,8.5,3.8,8.5,8.5V68.3z"/>
			<path class="st2" d="M230.4,298.7c-18.9,0-34.1,15.3-34.1,34.1c0,18.8,15.3,34.1,34.1,34.1c18.9,0,34.1-15.3,34.1-34.1
				S249.3,298.7,230.4,298.7z M230.4,349.9c-9.4,0-17.1-7.6-17.1-17.1c0-9.4,7.6-17.1,17.1-17.1c9.4,0,17.1,7.6,17.1,17.1
				S239.8,349.9,230.4,349.9z"/>
			<path class="st2" d="M443.7,298.7c-18.9,0-34.1,15.3-34.1,34.1c0,18.9,15.3,34.1,34.1,34.1c18.9,0,34.1-15.3,34.1-34.1
				C477.8,314,462.6,298.7,443.7,298.7z M443.7,349.9c-9.4,0-17.1-7.6-17.1-17.1s7.6-17.1,17.1-17.1s17.1,7.6,17.1,17.1
				C460.8,342.2,453.2,349.9,443.7,349.9z"/>
			<path class="st2" d="M452.3,111H221.9c-14.1,0-25.6,11.5-25.6,25.6V256c0,14.1,11.5,25.6,25.6,25.6h230.4
				c14.1,0,25.6-11.5,25.6-25.6V136.6C477.9,122.4,466.4,111,452.3,111z M460.8,256c0,4.7-3.8,8.5-8.5,8.5H221.9
				c-4.7,0-8.5-3.8-8.5-8.5V136.6c0-4.7,3.8-8.5,8.5-8.5h230.4c4.7,0,8.5,3.8,8.5,8.5V256z"/>
		</g>
	</g>
</g>
</svg>
