<svg xmlns="http://www.w3.org/2000/svg" width="117" height="113" viewBox="0 0 117 113">
  <metadata><?xpacket begin="﻿" id="W5M0MpCehiHzreSzNTczkc9d"?>
<x:xmpmeta xmlns:x="adobe:ns:meta/" x:xmptk="Adobe XMP Core 5.6-c138 79.159824, 2016/09/14-01:09:01        ">
   <rdf:RDF xmlns:rdf="http://www.w3.org/1999/02/22-rdf-syntax-ns#">
      <rdf:Description rdf:about=""/>
   </rdf:RDF>
</x:xmpmeta>
                                                                                                    
                                                                                                    
                                                                                                    
                                                                                                    
                                                                                                    
                                                                                                    
                                                                                                    
                                                                                                    
                                                                                                    
                                                                                                    
                                                                                                    
                                                                                                    
                                                                                                    
                                                                                                    
                                                                                                    
                                                                                                    
                                                                                                    
                                                                                                    
                                                                                                    
                                                                                                    
                           
<?xpacket end="w"?></metadata>
<defs>
    <style>
      .cls-1 {
        fill: #e93b18;
        opacity: 0.2;
      }

      .cls-1, .cls-2, .cls-4 {
        fill-rule: evenodd;
      }

      .cls-2 {
        fill: #ea1e0f;
      }

      .cls-3 {
        fill: #fff;
      }

      .cls-4 {
        fill: #fbd2cf;
      }
    </style>
  </defs>
  <path id="Фигура_3" data-name="Фигура 3" class="cls-1" d="M48,65V29a86.374,86.374,0,0,1,10,2,25.8,25.8,0,0,1,7,3Z"/>
  <path id="Прямоугольник_1_копия_6" data-name="Прямоугольник 1 копия 6" class="cls-2" d="M90.571,30.56l-2.692,2.69L85.11,30.483l2.461-2.459a1.086,1.086,0,0,0,0-1.537l-2-2a1.088,1.088,0,0,0-1.538,0l-2.461,2.46L78.8,24.181l2.692-2.69a4.679,4.679,0,0,1,6.614,0l2.461,2.459A4.672,4.672,0,0,1,90.571,30.56ZM53.191,15.313H49.47v1.794a47.5,47.5,0,1,1-3.94,0V15.313H41.809A7.656,7.656,0,1,1,41.809,0H53.191A7.656,7.656,0,1,1,53.191,15.313ZM3.94,64.531A43.56,43.56,0,1,0,47.5,21,43.545,43.545,0,0,0,3.94,64.531ZM53.191,3.938H41.809a3.719,3.719,0,1,0,0,7.438H45.53V7.656h3.94v3.719h3.721A3.719,3.719,0,1,0,53.191,3.938Zm-3.68,28H45.564v-5.25h3.947v5.25Zm0.006,25.208,6.131-11.021,3.416,1.969L52.926,59.127A7.662,7.662,0,1,1,49.517,57.145Zm-5.738,7.386A3.721,3.721,0,1,0,47.5,60.813,3.72,3.72,0,0,0,43.779,64.531ZM26.94,32.829l3.466-1.983,2.668,4.58-3.466,1.983Zm6.113,60.808-2.665,4.58-3.463-1.983,2.665-4.58ZM13.792,47.431l1.987-3.46,4.588,2.664-1.987,3.46Zm1.039,19.127H9.578V62.621h5.253v3.938Zm5.529,15.87-4.583,2.664-1.985-3.46,4.583-2.664Zm29.11,19.947H45.53v-5.25h3.94v5.25ZM68.2,96.282l-3.412,1.969L62.159,93.7l3.412-1.969ZM62.212,35.358l2.63-4.547,3.416,1.969-2.63,4.547ZM81.352,81.7l-1.97,3.41-4.55-2.625,1.97-3.41Zm-1.29-19.075h5.253v3.938H80.061V62.621ZM74.9,46.582l4.555-2.625,1.972,3.41-4.555,2.625ZM11.023,24.468a1.1,1.1,0,0,0-1.548,0L7.463,26.479a1.093,1.093,0,0,0,0,1.547L9.939,30.5,7.153,33.284,4.444,30.578a4.7,4.7,0,0,1,0-6.651l2.476-2.475a4.708,4.708,0,0,1,6.656,0l2.709,2.707L13.5,26.943Z"/>
  <rect id="Прямоугольник_скругл._углы_4" data-name="Прямоугольник, скругл. углы 4" class="cls-3" x="65.625" y="64.75" width="47.031" height="47.375" rx="10" ry="10"/>
  <path id="Прямоугольник_скругл._углы_8" data-name="Прямоугольник, скругл. углы 8" class="cls-4" d="M98,88a11.994,11.994,0,0,0,8,11.3V103a2,2,0,0,1-2,2H73a2,2,0,0,1-2-2V73a2,2,0,0,1,2-2h31a2,2,0,0,1,2,2v3.7A11.994,11.994,0,0,0,98,88Z"/>
  <path id="Прямоугольник_1_копия" data-name="Прямоугольник 1 копия" class="cls-2" d="M114.363,95.043v9.792A8.165,8.165,0,0,1,106.2,113H71.163A8.164,8.164,0,0,1,63,104.834V71.166A8.164,8.164,0,0,1,71.163,63H106.2a8.165,8.165,0,0,1,8.163,8.166V81.334A5.649,5.649,0,0,1,117,86.116v4.146A5.649,5.649,0,0,1,114.363,95.043Zm-0.628-8.864a2.449,2.449,0,0,0-2.449-2.45h-2.763a2.45,2.45,0,0,0-2.449,2.45V90.2a2.45,2.45,0,0,0,2.449,2.45h2.763a2.449,2.449,0,0,0,2.449-2.45v-4.02Zm-7.786-19.912H71.414a5.15,5.15,0,0,0-5.149,5.151v33.166a5.15,5.15,0,0,0,5.149,5.151h34.535a5.15,5.15,0,0,0,5.149-5.151V95.915H108.46a5.652,5.652,0,0,1-5.651-5.653V86.116a5.652,5.652,0,0,1,5.651-5.653H111.1V71.417A5.15,5.15,0,0,0,105.949,66.266Zm4.144,23.618a1.759,1.759,0,1,1,1.758-1.759A1.758,1.758,0,0,1,110.093,89.884Z"/>
</svg>
